<svg width="122" height="32" viewBox="0 0 122 32" fill="none" xmlns="http://www.w3.org/2000/svg">
<path d="M-0.532156 0H5.42681V16.9418L13.0822 8.17715H20.644L12.3199 16.8344L20.9646 31.2913H13.5761L7.95153 21.3778L5.4391 23.9839V31.2929H-0.519867V0.00153564H-0.533691L-0.532156 0Z" fill="#3B54A4"/>
<path d="M30.1691 8.12187V31.2897H24.0107V14.2819L30.1691 8.12187Z" fill="#3B54A4"/>
<path fill-rule="evenodd" clip-rule="evenodd" d="M34.2045 0.0121918L26.4448 7.85495L26.2331 8.06819L24.0106 10.3153L22.1408 12.2051L19.202 15.1762C20.337 13.4506 21.3233 11.9719 22.1408 10.6911C22.8295 9.61738 23.397 8.68023 23.8342 7.85495C26.0015 3.75792 24.9339 2.34832 19.0425 0.0121918H34.206H34.2045Z" fill="#FCD00E"/>
<path d="M40.4225 23.8351C40.5528 24.9073 40.8274 25.6742 41.2553 26.1237C42.0085 26.9274 43.3981 27.3324 45.4335 27.3324C46.6207 27.3324 47.5701 27.159 48.2726 26.8032C48.9751 26.4488 49.3295 25.9197 49.3295 25.2095C49.3295 24.4993 49.0473 24.0146 48.4751 23.6664C47.9107 23.3121 45.8031 22.7031 42.1526 21.841C39.5313 21.1891 37.6769 20.3777 36.6063 19.4006C35.528 18.4374 34.9912 17.0538 34.9912 15.2438C34.9912 13.1071 35.8317 11.2756 37.5113 9.74022C39.1908 8.2048 41.5514 7.43782 44.6006 7.43782C47.4904 7.43782 49.8509 8.01766 51.6685 9.16806C53.4859 10.32 54.5367 12.311 54.8036 15.1425H48.7573C48.6699 14.3679 48.4536 13.7528 48.0978 13.2957C47.4245 12.4767 46.2879 12.0641 44.6866 12.0641C43.3613 12.0641 42.4195 12.2665 41.855 12.6791C41.2983 13.0918 41.0145 13.5703 41.0145 14.121C41.0145 14.8158 41.3121 15.3159 41.9118 15.6273C42.5054 15.9524 44.6129 16.5108 48.2343 17.3069C50.6455 17.8714 52.4554 18.7257 53.658 19.87C54.8452 21.0281 55.4385 22.4776 55.4385 24.2155C55.4385 26.5041 54.5841 28.38 52.8757 29.828C51.167 31.276 48.5303 32 44.9611 32C41.3918 32 38.6248 31.233 36.8946 29.6976C35.1568 28.1622 34.2871 26.2065 34.2871 23.8321H40.4209L40.4225 23.8351Z" fill="#3B54A4"/>
<path d="M64.6316 23.8351C64.7621 24.9073 65.0367 25.6742 65.4642 26.1237C66.2174 26.9274 67.6068 27.3324 69.6426 27.3324C70.8298 27.3324 71.7788 27.159 72.4815 26.8032C73.1842 26.4488 73.5388 25.9197 73.5388 25.2095C73.5388 24.4993 73.2566 24.0146 72.6844 23.6664C72.12 23.3121 70.0119 22.7031 66.3614 21.841C63.7401 21.1891 61.8861 20.3777 60.8154 19.4006C59.737 18.4374 59.2001 17.0538 59.2001 15.2438C59.2001 13.1071 60.041 11.2756 61.7203 9.74022C63.3996 8.2048 65.7605 7.43782 68.8093 7.43782C71.6995 7.43782 74.0597 8.01766 75.8773 9.16806C77.6954 10.32 78.7457 12.311 79.0125 15.1425H72.9667C72.879 14.3679 72.6627 13.7528 72.3068 13.2957C71.6336 12.4767 70.497 12.0641 68.8957 12.0641C67.5703 12.0641 66.6283 12.2665 66.0638 12.6791C65.5071 13.0918 65.2235 13.5703 65.2235 14.121C65.2235 14.8158 65.5211 15.3159 66.1208 15.6273C66.7147 15.9524 68.8221 16.5108 72.4431 17.3069C74.8546 17.8714 76.6644 18.7257 77.867 19.87C79.0541 21.0281 79.648 22.4776 79.648 24.2155C79.648 26.5041 78.7937 28.38 77.0849 29.828C75.3762 31.276 72.7395 32 69.1703 32C65.6011 32 62.8339 31.233 61.1034 29.6976C59.3658 28.1622 58.4961 26.2065 58.4961 23.8321H64.6296L64.6316 23.8351Z" fill="#3B54A4"/>
<path d="M96.8634 7.50378C98.2899 7.50378 99.5858 7.75069 100.745 8.24925C101.912 8.7416 102.867 9.49476 103.614 10.5163C104.251 11.3783 104.635 12.268 104.779 13.1807C104.917 14.0933 104.99 15.5781 104.99 17.6413V31.2192H98.8127V17.155C98.8127 15.9095 98.6028 14.9033 98.1823 14.1424C97.632 13.0641 96.5888 12.5273 95.0535 12.5273C93.5182 12.5273 92.2587 13.0626 91.4319 14.1271C90.6133 15.1993 90.2005 16.7194 90.2005 18.7042V31.2177H84.1758V0.049057H90.2005V11.1069C91.076 9.7601 92.084 8.82596 93.234 8.2968C94.386 7.76759 95.5949 7.50071 96.8621 7.50071L96.8634 7.50378Z" fill="#3B54A4"/>
<path d="M124.165 12.5718V8.08667H117.501V1.67656H111.691V8.08667H107.763V12.5718H111.691V21.3687C111.691 22.7522 111.705 23.9854 111.734 25.0761C111.763 26.1651 112.063 27.2373 112.63 28.2911C113.257 29.4169 114.171 30.2299 115.375 30.7361C116.579 31.2423 117.946 31.5107 119.477 31.546C121.008 31.5813 122.571 31.4524 124.165 31.1518V26.3262C122.796 26.5087 121.552 26.567 120.426 26.4949C119.3 26.4228 118.483 25.9825 117.97 25.1727C117.697 24.7463 117.555 24.1726 117.533 23.4517C117.511 22.7353 117.501 21.9239 117.501 21.0281V12.5718H124.165Z" fill="#3B54A4"/>
</svg>
