<?xml version="1.0" encoding="UTF-8"?> <svg xmlns="http://www.w3.org/2000/svg" width="152" height="32" viewBox="0 0 152 32" fill="none"><g clip-path="url(#clip0_5554_32858)"><path d="M31.5638 27H36L32.6991 20.2275C34.6771 18.6527 35.9389 16.2627 35.9389 13.5867C35.9389 8.84441 31.9759 5 27.0872 5L15 5V9.29337L18.5856 9.29326L15.0823 26.982H19.5185L23.0219 9.29326L27.0768 9.29337C29.5212 9.29337 31.5027 11.2156 31.5027 13.5867C31.5027 15.9579 29.5212 17.8801 27.0768 17.8801H23.7248L22.0572 26.982H26.4934L27.3752 22.169C27.9675 22.1506 28.5451 22.0758 29.1024 21.9499L31.5638 27Z" fill="url(#paint0_linear_5554_32858)"></path><path d="M45.4915 22.9768L46.172 19.504H48.8184C52.807 19.504 55.3589 17.3217 55.3589 13.9628C55.3589 11.2681 53.4308 9.69305 49.9904 9.69305H44.3951L41.7487 22.9768H45.4915ZM48.9886 16.5437H46.758L47.533 12.6534H49.499C50.8033 12.6534 51.5783 13.1658 51.5783 14.2854C51.5783 15.7466 50.6331 16.5437 48.9886 16.5437ZM60.1792 23.1476C61.3701 23.1476 62.3531 22.749 63.147 22.009L62.9391 22.9768H66.3417L68.3832 12.6914H64.7916L64.5459 13.9249C63.9032 12.9381 62.7879 12.5206 61.4079 12.5206C58.3456 12.5206 55.8504 15.0445 55.8504 18.4603C55.8504 21.4586 57.9676 23.1476 60.1792 23.1476ZM61.4269 20.2441C60.1981 20.2441 59.4798 19.485 59.4798 18.2895C59.4798 16.5626 60.5006 15.405 61.9183 15.405C63.147 15.405 63.8654 16.1831 63.8654 17.3786C63.8654 19.0865 62.8635 20.2441 61.4269 20.2441ZM69.8388 26.829C71.9937 26.829 73.3169 26.051 74.9237 23.4322L81.4831 12.6914H77.9671L74.1865 19.0106L72.9011 12.6914H69.3284L71.6535 23.0527C71.2187 23.6979 70.8028 23.9825 70.1412 23.9825C69.5174 23.9825 68.9692 23.7548 68.5533 23.3943L66.9466 25.9371C67.5704 26.4685 68.7613 26.829 69.8388 26.829ZM84.2808 22.9768L84.9802 19.4471H86.8705L88.8364 22.9768H92.7494L90.4999 18.9917C92.8061 18.1946 94.1671 16.3729 94.1671 13.9249C94.1671 11.2681 92.2201 9.69305 88.8364 9.69305H83.1844L80.5379 22.9768H84.2808ZM87.7779 16.5437H85.5473L86.3412 12.6534H88.3071C89.5926 12.6534 90.3865 13.1658 90.3865 14.2854C90.3865 15.7466 89.4224 16.5437 87.7779 16.5437ZM98.7606 23.1476C99.8759 23.1476 101.029 22.768 101.936 21.9141L101.728 22.9768H105.131L107.173 12.6914H103.581L102.56 17.7771C102.258 19.3332 101.407 20.0733 100.197 20.0733C99.271 20.0733 98.8173 19.5989 98.8173 18.726C98.8173 18.5172 98.8362 18.2895 98.8929 18.0238L99.9515 12.6914H96.3599L95.2257 18.3654C95.1312 18.8209 95.0934 19.2384 95.0934 19.6369C95.0934 21.952 96.5867 23.1476 98.7606 23.1476ZM110.292 26.6583L111.274 21.7433C111.917 22.7301 113.032 23.1476 114.412 23.1476C117.475 23.1476 119.97 20.6237 119.97 17.1889C119.97 14.2095 117.853 12.5206 115.641 12.5206C114.45 12.5206 113.467 12.9191 112.673 13.6592L112.881 12.6914H109.479L106.7 26.6583H110.292ZM113.902 20.2441C112.673 20.2441 111.955 19.485 111.955 18.2895C111.955 16.5626 112.976 15.405 114.394 15.405C115.622 15.405 116.341 16.1831 116.341 17.3786C116.341 19.0865 115.32 20.2441 113.902 20.2441ZM124.904 11.5528C126.303 11.5528 127.229 10.6798 127.229 9.44635C127.229 8.45956 126.416 7.71947 125.149 7.71947C123.751 7.71947 122.843 8.61137 122.843 9.76896C122.843 10.7557 123.637 11.5528 124.904 11.5528ZM124.148 22.9768L126.189 12.6914H122.616L120.575 22.9768H124.148ZM130.064 22.9768L130.499 20.7565L131.973 19.4661L134.072 22.9768H138.268L134.828 17.2458L140.083 12.6914H135.546L131.406 16.2021L132.862 8.89603H129.27L126.473 22.9768H130.064Z" fill="#474550"></path></g><defs><linearGradient id="paint0_linear_5554_32858" x1="15" y1="5" x2="40.3044" y2="12.5245" gradientUnits="userSpaceOnUse"><stop stop-color="#A26DF2"></stop><stop offset="1" stop-color="#6F80FF"></stop></linearGradient><clipPath id="clip0_5554_32858"><rect width="128" height="24" fill="white" transform="translate(12 4)"></rect></clipPath></defs></svg> 